<svg width="1600" height="600" viewBox="0 0 1600 600" fill="none" xmlns="http://www.w3.org/2000/svg">
<rect width="1600" height="600" fill="#2F303A"/>
<g filter="url(#filter0_d_1_20)">
<path d="M522.027 226.438V232.26H508.514V226.438H522.027ZM498.545 234.43H506.065C506.108 235.604 506.337 236.578 506.752 237.352C507.182 238.125 507.79 238.705 508.578 239.092C509.38 239.479 510.354 239.672 511.5 239.672C512.531 239.672 513.405 239.493 514.121 239.135C514.852 238.762 515.446 238.197 515.904 237.438C516.363 236.678 516.699 235.704 516.914 234.516C517.129 233.327 517.236 231.902 517.236 230.24V228.521C517.236 227.189 517.158 226.008 517 224.977C516.857 223.945 516.628 223.064 516.313 222.334C516.012 221.589 515.632 220.98 515.174 220.508C514.73 220.035 514.207 219.684 513.606 219.455C513.004 219.226 512.331 219.111 511.586 219.111C510.254 219.111 509.187 219.319 508.385 219.734C507.583 220.15 506.996 220.766 506.623 221.582C506.265 222.384 506.065 223.372 506.022 224.547H498.502C498.703 222.384 499.318 220.458 500.35 218.768C501.381 217.063 502.828 215.724 504.69 214.75C506.566 213.776 508.865 213.289 511.586 213.289C513.577 213.289 515.382 213.64 517 214.342C518.619 215.044 520.001 216.061 521.147 217.393C522.307 218.725 523.195 220.329 523.811 222.205C524.427 224.081 524.734 226.201 524.734 228.564V230.24C524.734 232.589 524.434 234.702 523.832 236.578C523.245 238.454 522.378 240.051 521.233 241.369C520.101 242.687 518.719 243.697 517.086 244.398C515.453 245.1 513.591 245.451 511.5 245.451C508.936 245.451 506.702 244.993 504.797 244.076C502.906 243.145 501.417 241.849 500.328 240.188C499.254 238.526 498.66 236.607 498.545 234.43ZM543.445 216.383H551.265C553.156 216.383 554.896 216.691 556.486 217.307C558.076 217.923 559.458 218.803 560.632 219.949C561.807 221.095 562.716 222.477 563.361 224.096C564.005 225.714 564.328 227.533 564.328 229.553C564.328 231.501 564.005 233.262 563.361 234.838C562.716 236.413 561.807 237.76 560.632 238.877C559.458 239.994 558.076 240.854 556.486 241.455C554.896 242.042 553.156 242.336 551.265 242.336H543.445C541.54 242.336 539.785 242.042 538.181 241.455C536.577 240.854 535.18 240.001 533.992 238.898C532.817 237.781 531.901 236.442 531.242 234.881C530.597 233.305 530.275 231.544 530.275 229.596C530.275 227.576 530.597 225.757 531.242 224.139C531.901 222.52 532.817 221.131 533.992 219.971C535.18 218.811 536.577 217.923 538.181 217.307C539.785 216.691 541.54 216.383 543.445 216.383ZM543.445 222.441C542.299 222.441 541.268 222.699 540.351 223.215C539.434 223.73 538.711 224.518 538.181 225.578C537.651 226.624 537.386 227.963 537.386 229.596C537.386 230.727 537.544 231.715 537.859 232.561C538.174 233.406 538.611 234.1 539.169 234.645C539.728 235.189 540.373 235.597 541.103 235.869C541.833 236.141 542.614 236.277 543.445 236.277H551.308C552.425 236.277 553.428 236.034 554.316 235.547C555.204 235.046 555.906 234.294 556.421 233.291C556.951 232.288 557.216 231.042 557.216 229.553C557.216 228.335 557.066 227.283 556.765 226.395C556.464 225.507 556.042 224.769 555.498 224.182C554.968 223.594 554.345 223.158 553.628 222.871C552.912 222.585 552.139 222.441 551.308 222.441H543.445ZM550.964 212.43V246.289H543.724V212.43H550.964ZM582.952 216.383H590.772C592.663 216.383 594.403 216.691 595.993 217.307C597.583 217.923 598.965 218.803 600.139 219.949C601.314 221.095 602.223 222.477 602.868 224.096C603.513 225.714 603.835 227.533 603.835 229.553C603.835 231.501 603.513 233.262 602.868 234.838C602.223 236.413 601.314 237.76 600.139 238.877C598.965 239.994 597.583 240.854 595.993 241.455C594.403 242.042 592.663 242.336 590.772 242.336H582.952C581.047 242.336 579.292 242.042 577.688 241.455C576.084 240.854 574.688 240.001 573.499 238.898C572.324 237.781 571.408 236.442 570.749 234.881C570.104 233.305 569.782 231.544 569.782 229.596C569.782 227.576 570.104 225.757 570.749 224.139C571.408 222.52 572.324 221.131 573.499 219.971C574.688 218.811 576.084 217.923 577.688 217.307C579.292 216.691 581.047 216.383 582.952 216.383ZM582.952 222.441C581.806 222.441 580.775 222.699 579.858 223.215C578.942 223.73 578.218 224.518 577.688 225.578C577.158 226.624 576.893 227.963 576.893 229.596C576.893 230.727 577.051 231.715 577.366 232.561C577.681 233.406 578.118 234.1 578.677 234.645C579.235 235.189 579.88 235.597 580.61 235.869C581.341 236.141 582.121 236.277 582.952 236.277H590.815C591.932 236.277 592.935 236.034 593.823 235.547C594.711 235.046 595.413 234.294 595.929 233.291C596.458 232.288 596.723 231.042 596.723 229.553C596.723 228.335 596.573 227.283 596.272 226.395C595.971 225.507 595.549 224.769 595.005 224.182C594.475 223.594 593.852 223.158 593.136 222.871C592.419 222.585 591.646 222.441 590.815 222.441H582.952ZM590.471 212.43V246.289H583.231V212.43H590.471ZM631.762 239.199V245H615.09V239.199H631.762ZM617.776 213.719V245H610.235V213.719H617.776ZM629.613 226.137V231.744H615.09V226.137H629.613ZM631.826 213.719V219.541H615.09V213.719H631.826ZM644.972 213.719V245H637.453V213.719H644.972ZM663.019 213.719L651.783 232.625H643.662L642.759 225.814H647.894L653.91 213.719H663.019ZM655.199 245L647.873 231.314L653.351 226.266L664.093 245H655.199ZM683.77 213.719V245H676.229V213.719H683.77ZM693.181 213.719V219.541H667.034V213.719H693.181ZM706.133 233.463L717.369 213.719H724.91V245H717.369V225.277L706.133 245H698.592V213.719H706.133V233.463ZM744.931 231.701H736.875L736.832 226.76H743.363C744.537 226.76 745.476 226.631 746.177 226.373C746.879 226.101 747.388 225.707 747.703 225.191C748.032 224.676 748.197 224.031 748.197 223.258C748.197 222.37 748.032 221.654 747.703 221.109C747.373 220.565 746.851 220.171 746.134 219.928C745.433 219.67 744.523 219.541 743.406 219.541H739.711V245H732.17V213.719H743.406C745.339 213.719 747.065 213.898 748.584 214.256C750.102 214.6 751.391 215.13 752.451 215.846C753.525 216.562 754.341 217.464 754.9 218.553C755.459 219.627 755.738 220.895 755.738 222.355C755.738 223.63 755.466 224.826 754.922 225.943C754.377 227.061 753.468 227.97 752.193 228.672C750.933 229.359 749.207 229.717 747.015 229.746L744.931 231.701ZM744.63 245H735.048L737.627 239.199H744.63C745.662 239.199 746.485 239.042 747.101 238.727C747.731 238.397 748.183 237.967 748.455 237.438C748.741 236.893 748.884 236.292 748.884 235.633C748.884 234.831 748.748 234.136 748.476 233.549C748.218 232.962 747.803 232.51 747.23 232.195C746.657 231.866 745.891 231.701 744.931 231.701H738.593L738.636 226.76H746.22L747.982 228.736C750.073 228.65 751.727 228.944 752.945 229.617C754.177 230.29 755.058 231.178 755.588 232.281C756.117 233.384 756.382 234.537 756.382 235.74C756.382 237.788 755.938 239.5 755.05 240.875C754.177 242.25 752.866 243.281 751.119 243.969C749.371 244.656 747.209 245 744.63 245ZM784.288 226.137V231.938H768.239V226.137H784.288ZM770.753 213.719V245H763.212V213.719H770.753ZM789.358 213.719V245H781.839V213.719H789.358ZM801.473 224.482H808.198C810.733 224.482 812.938 224.905 814.815 225.75C816.691 226.595 818.138 227.777 819.155 229.295C820.186 230.813 820.702 232.589 820.702 234.623C820.702 236.156 820.408 237.559 819.821 238.834C819.233 240.094 818.388 241.19 817.285 242.121C816.197 243.038 814.886 243.747 813.354 244.248C811.821 244.749 810.103 245 808.198 245H796.768V213.719H804.33V239.199H808.198C809.272 239.199 810.174 238.992 810.905 238.576C811.649 238.161 812.215 237.609 812.602 236.922C812.989 236.22 813.182 235.439 813.182 234.58C813.182 233.749 812.989 233.012 812.602 232.367C812.215 231.723 811.649 231.214 810.905 230.842C810.174 230.469 809.272 230.283 808.198 230.283H801.473V224.482ZM830.498 213.719V245H822.979V213.719H830.498ZM859.328 239.199V245H842.656V239.199H859.328ZM845.341 213.719V245H837.8V213.719H845.341ZM857.179 226.137V231.744H842.656V226.137H857.179ZM859.392 213.719V219.541H842.656V213.719H859.392ZM891.141 234.387H883.364V228.564H891.141C892.201 228.564 893.06 228.385 893.719 228.027C894.378 227.669 894.858 227.175 895.159 226.545C895.474 225.9 895.631 225.177 895.631 224.375C895.631 223.516 895.474 222.721 895.159 221.99C894.858 221.26 894.378 220.673 893.719 220.229C893.06 219.77 892.201 219.541 891.141 219.541H886.2V245H878.659V213.719H891.141C893.648 213.719 895.803 214.177 897.608 215.094C899.427 216.01 900.823 217.271 901.797 218.875C902.771 220.465 903.258 222.284 903.258 224.332C903.258 226.352 902.771 228.113 901.797 229.617C900.823 231.121 899.427 232.296 897.608 233.141C895.803 233.971 893.648 234.387 891.141 234.387ZM931.486 239.199V245H914.814V239.199H931.486ZM917.5 213.719V245H909.959V213.719H917.5ZM929.338 226.137V231.744H914.814V226.137H929.338ZM931.551 213.719V219.541H914.814V213.719H931.551ZM937.048 213.719H944.61V239.199H952.388V213.719H959.929V239.199H967.599V213.719H975.118V245H937.048V213.719ZM1003.93 239.199V245H987.254V239.199H1003.93ZM989.94 213.719V245H982.399V213.719H989.94ZM1001.78 226.137V231.744H987.254V226.137H1001.78ZM1003.99 213.719V219.541H987.254V213.719H1003.99ZM1030.74 226.137V231.938H1014.69V226.137H1030.74ZM1017.2 213.719V245H1009.66V213.719H1017.2ZM1035.81 213.719V245H1028.29V213.719H1035.81ZM1050.35 233.463L1061.59 213.719H1069.13V245H1061.59V225.277L1050.35 245H1042.81V213.719H1050.35V233.463ZM1092.67 234.021H1084.31L1082.08 233.098C1079.53 232.296 1077.59 231.107 1076.26 229.531C1074.92 227.941 1074.26 225.915 1074.26 223.451C1074.26 221.303 1074.74 219.512 1075.7 218.08C1076.66 216.633 1078.02 215.545 1079.78 214.814C1081.54 214.084 1083.63 213.719 1086.05 213.719H1097.4V245H1089.83V219.541H1086.05C1084.55 219.541 1083.46 219.935 1082.79 220.723C1082.11 221.496 1081.78 222.628 1081.78 224.117C1081.78 225.263 1081.94 226.165 1082.25 226.824C1082.58 227.483 1083.06 227.956 1083.69 228.242C1084.32 228.514 1085.11 228.65 1086.05 228.65H1092.63L1092.67 234.021ZM1086.87 231.207L1080.23 245H1072.02L1078.58 231.207H1086.87ZM559.73 299.199V305H537.751V299.199H559.73ZM540.244 299.199V312.67H533.261L532.746 299.199H540.244ZM564.865 299.199L564.07 312.691H557.302V299.199H564.865ZM556.443 273.719V279.541H540.738V273.719H556.443ZM561.513 273.719V305H554.015V273.719H561.513ZM540.244 273.719H547.763L546.839 286.545C546.682 288.736 546.431 290.641 546.087 292.26C545.744 293.878 545.335 295.275 544.863 296.449C544.39 297.624 543.874 298.633 543.316 299.479C542.757 300.324 542.17 301.061 541.554 301.691C540.953 302.322 540.351 302.895 539.749 303.41C539.148 303.926 538.568 304.456 538.009 305H533.433V299.199H534.937C535.381 298.884 535.825 298.462 536.269 297.932C536.727 297.387 537.157 296.65 537.558 295.719C537.959 294.788 538.31 293.577 538.611 292.088C538.912 290.598 539.141 288.751 539.298 286.545L540.244 273.719ZM591.675 273.719V279.541H575.518V273.719H591.675ZM596.766 273.719V305H589.225V273.719H596.766ZM575.003 273.719H582.501L581.684 289.617C581.555 292.023 581.312 294.1 580.954 295.848C580.596 297.581 580.116 299.042 579.514 300.23C578.913 301.405 578.19 302.343 577.345 303.045C576.499 303.747 575.518 304.248 574.401 304.549C573.298 304.85 572.059 305 570.684 305H568.858V299.199L569.675 299.113C570.333 299.042 570.914 298.863 571.415 298.576C571.916 298.275 572.346 297.831 572.704 297.244C573.076 296.657 573.384 295.905 573.628 294.988C573.871 294.072 574.065 292.962 574.208 291.658C574.365 290.34 574.473 288.801 574.53 287.039L575.003 273.719ZM620.397 294.021H612.039L609.805 293.098C607.255 292.296 605.315 291.107 603.983 289.531C602.651 287.941 601.985 285.915 601.985 283.451C601.985 281.303 602.464 279.512 603.424 278.08C604.384 276.633 605.744 275.545 607.506 274.814C609.268 274.084 611.359 273.719 613.779 273.719H625.123V305H617.561V279.541H613.779C612.276 279.541 611.187 279.935 610.514 280.723C609.841 281.496 609.504 282.628 609.504 284.117C609.504 285.263 609.662 286.165 609.977 286.824C610.306 287.483 610.786 287.956 611.416 288.242C612.046 288.514 612.834 288.65 613.779 288.65H620.354L620.397 294.021ZM614.596 291.207L607.957 305H599.75L606.303 291.207H614.596ZM658.29 291.701H650.233L650.19 286.76H656.722C657.896 286.76 658.834 286.631 659.536 286.373C660.238 286.101 660.746 285.707 661.061 285.191C661.391 284.676 661.556 284.031 661.556 283.258C661.556 282.37 661.391 281.654 661.061 281.109C660.732 280.565 660.209 280.171 659.493 279.928C658.791 279.67 657.882 279.541 656.765 279.541H653.069V305H645.528V273.719H656.765C658.698 273.719 660.424 273.898 661.942 274.256C663.46 274.6 664.75 275.13 665.809 275.846C666.884 276.562 667.7 277.464 668.259 278.553C668.817 279.627 669.097 280.895 669.097 282.355C669.097 283.63 668.824 284.826 668.28 285.943C667.736 287.061 666.826 287.97 665.552 288.672C664.291 289.359 662.565 289.717 660.374 289.746L658.29 291.701ZM657.989 305H648.407L650.985 299.199H657.989C659.02 299.199 659.844 299.042 660.46 298.727C661.09 298.397 661.541 297.967 661.813 297.438C662.1 296.893 662.243 296.292 662.243 295.633C662.243 294.831 662.107 294.136 661.835 293.549C661.577 292.962 661.162 292.51 660.589 292.195C660.016 291.866 659.25 291.701 658.29 291.701H651.952L651.995 286.76H659.579L661.341 288.736C663.432 288.65 665.086 288.944 666.304 289.617C667.535 290.29 668.416 291.178 668.946 292.281C669.476 293.384 669.741 294.537 669.741 295.74C669.741 297.788 669.297 299.5 668.409 300.875C667.535 302.25 666.225 303.281 664.477 303.969C662.73 304.656 660.567 305 657.989 305ZM689.826 280.293L682.199 305H674.1L685.594 273.719H690.729L689.826 280.293ZM696.143 305L688.494 280.293L687.506 273.719H692.705L704.264 305H696.143ZM695.842 293.334V299.156H679.793V293.334H695.842ZM709.031 273.719H716.593V299.199H724.371V273.719H731.912V299.199H739.582V273.719H747.101V305H709.031V273.719ZM775.909 299.199V305H759.237V299.199H775.909ZM761.923 273.719V305H754.382V273.719H761.923ZM773.761 286.137V291.744H759.237V286.137H773.761ZM775.974 273.719V279.541H759.237V273.719H775.974ZM802.719 273.719V279.541H789.119V305H781.6V273.719H802.719ZM833.826 288.736V290.004C833.826 292.396 833.489 294.544 832.816 296.449C832.157 298.34 831.219 299.958 830.002 301.305C828.784 302.637 827.345 303.661 825.683 304.377C824.022 305.079 822.188 305.43 820.183 305.43C818.164 305.43 816.316 305.079 814.64 304.377C812.979 303.661 811.532 302.637 810.3 301.305C809.083 299.958 808.138 298.34 807.465 296.449C806.806 294.544 806.476 292.396 806.476 290.004V288.736C806.476 286.344 806.806 284.196 807.465 282.291C808.138 280.386 809.076 278.768 810.279 277.436C811.496 276.089 812.936 275.065 814.597 274.363C816.273 273.647 818.121 273.289 820.14 273.289C822.146 273.289 823.979 273.647 825.64 274.363C827.316 275.065 828.763 276.089 829.98 277.436C831.198 278.768 832.143 280.386 832.816 282.291C833.489 284.196 833.826 286.344 833.826 288.736ZM826.177 290.004V288.693C826.177 287.146 826.041 285.786 825.769 284.611C825.511 283.423 825.125 282.427 824.609 281.625C824.093 280.823 823.456 280.221 822.697 279.82C821.952 279.405 821.1 279.197 820.14 279.197C819.138 279.197 818.264 279.405 817.519 279.82C816.774 280.221 816.151 280.823 815.65 281.625C815.149 282.427 814.769 283.423 814.511 284.611C814.268 285.786 814.146 287.146 814.146 288.693V290.004C814.146 291.536 814.268 292.897 814.511 294.086C814.769 295.26 815.149 296.256 815.65 297.072C816.166 297.889 816.796 298.505 817.541 298.92C818.3 299.335 819.181 299.543 820.183 299.543C821.143 299.543 821.995 299.335 822.74 298.92C823.485 298.505 824.108 297.889 824.609 297.072C825.125 296.256 825.511 295.26 825.769 294.086C826.041 292.897 826.177 291.536 826.177 290.004ZM875.092 273.719V279.541H861.493V305H853.973V273.719H875.092ZM858.7 284.482H865.424C867.959 284.482 870.165 284.905 872.041 285.75C873.918 286.595 875.364 287.777 876.381 289.295C877.413 290.813 877.928 292.589 877.928 294.623C877.928 296.156 877.635 297.559 877.047 298.834C876.46 300.094 875.615 301.19 874.512 302.121C873.424 303.038 872.113 303.747 870.58 304.248C869.048 304.749 867.329 305 865.424 305H853.995V273.719H861.557V299.199H865.424C866.498 299.199 867.401 298.992 868.131 298.576C868.876 298.161 869.442 297.609 869.829 296.922C870.215 296.22 870.409 295.439 870.409 294.58C870.409 293.749 870.215 293.012 869.829 292.367C869.442 291.723 868.876 291.214 868.131 290.842C867.401 290.469 866.498 290.283 865.424 290.283H858.7V284.482ZM891.224 293.463L902.461 273.719H910.002V305H902.461V285.277L891.224 305H883.683V273.719H891.224V293.463ZM929.958 290.025H924.566V286.244H928.562C929.493 286.244 930.245 286.094 930.818 285.793C931.39 285.478 931.813 285.034 932.085 284.461C932.357 283.874 932.493 283.186 932.493 282.398C932.493 281.811 932.336 281.267 932.021 280.766C931.72 280.264 931.254 279.863 930.624 279.562C929.994 279.262 929.192 279.111 928.218 279.111C927.473 279.111 926.793 279.233 926.177 279.477C925.561 279.72 925.074 280.078 924.716 280.551C924.358 281.009 924.179 281.582 924.179 282.27H916.659C916.659 280.866 916.967 279.613 917.583 278.51C918.199 277.407 919.037 276.469 920.097 275.695C921.171 274.922 922.403 274.335 923.792 273.934C925.196 273.518 926.671 273.311 928.218 273.311C930.008 273.311 931.627 273.504 933.073 273.891C934.52 274.263 935.759 274.822 936.79 275.566C937.836 276.311 938.638 277.242 939.196 278.359C939.755 279.462 940.034 280.744 940.034 282.205C940.034 283.279 939.791 284.289 939.304 285.234C938.831 286.18 938.151 287.01 937.263 287.727C936.375 288.443 935.308 289.008 934.062 289.424C932.83 289.825 931.462 290.025 929.958 290.025ZM924.566 288.113H929.958C931.634 288.113 933.123 288.292 934.427 288.65C935.73 289.008 936.833 289.531 937.735 290.219C938.652 290.906 939.347 291.758 939.819 292.775C940.292 293.778 940.528 294.931 940.528 296.234C940.528 297.695 940.22 298.999 939.605 300.145C939.003 301.276 938.151 302.236 937.048 303.023C935.945 303.811 934.642 304.406 933.138 304.807C931.648 305.208 930.008 305.408 928.218 305.408C926.771 305.408 925.332 305.236 923.9 304.893C922.482 304.535 921.193 303.99 920.032 303.26C918.872 302.529 917.941 301.591 917.239 300.445C916.552 299.299 916.208 297.924 916.208 296.32H923.771C923.771 296.951 923.957 297.516 924.329 298.018C924.716 298.519 925.246 298.913 925.919 299.199C926.592 299.486 927.359 299.629 928.218 299.629C929.22 299.629 930.073 299.471 930.775 299.156C931.491 298.841 932.035 298.411 932.407 297.867C932.78 297.323 932.966 296.721 932.966 296.062C932.966 295.289 932.873 294.637 932.687 294.107C932.5 293.563 932.221 293.126 931.849 292.797C931.476 292.453 931.011 292.21 930.452 292.066C929.908 291.909 929.278 291.83 928.562 291.83H924.566V288.113ZM968.692 286.137V291.938H952.643V286.137H968.692ZM955.157 273.719V305H947.616V273.719H955.157ZM973.762 273.719V305H966.243V273.719H973.762ZM1002.72 299.199V305H986.049V299.199H1002.72ZM988.734 273.719V305H981.193V273.719H988.734ZM1000.57 286.137V291.744H986.049V286.137H1000.57ZM1002.79 273.719V279.541H986.049V273.719H1002.79ZM1026.24 294.408H1033.76C1033.66 296.585 1033.08 298.505 1032 300.166C1030.93 301.827 1029.44 303.124 1027.53 304.055C1025.64 304.971 1023.41 305.43 1020.83 305.43C1018.74 305.43 1016.87 305.079 1015.22 304.377C1013.59 303.675 1012.2 302.665 1011.05 301.348C1009.92 300.03 1009.06 298.433 1008.45 296.557C1007.87 294.68 1007.57 292.568 1007.57 290.219V288.521C1007.57 286.173 1007.88 284.06 1008.5 282.184C1009.13 280.293 1010.02 278.689 1011.16 277.371C1012.32 276.039 1013.71 275.022 1015.33 274.32C1016.95 273.618 1018.75 273.268 1020.72 273.268C1023.44 273.268 1025.74 273.755 1027.62 274.729C1029.49 275.702 1030.95 277.042 1031.98 278.746C1033.01 280.436 1033.62 282.363 1033.81 284.525H1026.29C1026.26 283.351 1026.06 282.37 1025.68 281.582C1025.31 280.78 1024.73 280.178 1023.92 279.777C1023.12 279.376 1022.05 279.176 1020.72 279.176C1019.79 279.176 1018.98 279.348 1018.29 279.691C1017.61 280.035 1017.03 280.579 1016.58 281.324C1016.12 282.069 1015.77 283.036 1015.54 284.225C1015.33 285.399 1015.22 286.817 1015.22 288.479V290.219C1015.22 291.88 1015.32 293.298 1015.52 294.473C1015.72 295.647 1016.05 296.607 1016.49 297.352C1016.93 298.096 1017.51 298.648 1018.21 299.006C1018.92 299.35 1019.8 299.521 1020.83 299.521C1021.98 299.521 1022.94 299.342 1023.73 298.984C1024.52 298.612 1025.13 298.053 1025.56 297.309C1025.99 296.549 1026.21 295.583 1026.24 294.408ZM1053.23 280.293L1045.6 305H1037.5L1048.99 273.719H1054.13L1053.23 280.293ZM1059.54 305L1051.89 280.293L1050.9 273.719H1056.1L1067.66 305H1059.54ZM1059.24 293.334V299.156H1043.19V293.334H1059.24Z" fill="white"/>
</g>
<g filter="url(#filter1_d_1_20)">
<rect x="700" y="350" width="200" height="50" rx="4" fill="#2196F3"/>
</g>
<path d="M737.546 374.547H735.78V373.305H737.186C737.598 373.305 737.931 373.242 738.186 373.117C738.441 372.987 738.629 372.805 738.749 372.57C738.869 372.336 738.928 372.06 738.928 371.742C738.928 371.482 738.861 371.242 738.725 371.023C738.595 370.805 738.392 370.63 738.116 370.5C737.84 370.365 737.488 370.297 737.061 370.297C736.738 370.297 736.444 370.354 736.178 370.469C735.913 370.583 735.702 370.745 735.546 370.953C735.389 371.156 735.311 371.404 735.311 371.695H732.975C732.975 371.195 733.082 370.747 733.296 370.352C733.514 369.951 733.811 369.612 734.186 369.336C734.566 369.055 735.004 368.841 735.499 368.695C735.994 368.549 736.514 368.477 737.061 368.477C737.702 368.477 738.28 368.547 738.796 368.688C739.311 368.823 739.754 369.026 740.124 369.297C740.494 369.568 740.777 369.904 740.975 370.305C741.173 370.706 741.272 371.172 741.272 371.703C741.272 372.094 741.184 372.461 741.007 372.805C740.829 373.148 740.577 373.451 740.249 373.711C739.921 373.971 739.527 374.177 739.069 374.328C738.611 374.474 738.103 374.547 737.546 374.547ZM735.78 373.867H737.546C738.165 373.867 738.715 373.932 739.194 374.062C739.678 374.193 740.087 374.383 740.421 374.633C740.759 374.883 741.014 375.193 741.186 375.562C741.363 375.927 741.452 376.346 741.452 376.82C741.452 377.352 741.342 377.823 741.124 378.234C740.91 378.646 740.606 378.995 740.21 379.281C739.819 379.568 739.356 379.784 738.819 379.93C738.288 380.076 737.702 380.148 737.061 380.148C736.551 380.148 736.043 380.086 735.538 379.961C735.033 379.831 734.574 379.633 734.163 379.367C733.751 379.102 733.423 378.76 733.178 378.344C732.934 377.927 732.811 377.427 732.811 376.844H735.163C735.163 377.12 735.244 377.372 735.405 377.602C735.566 377.826 735.79 378.005 736.077 378.141C736.363 378.271 736.691 378.336 737.061 378.336C737.494 378.336 737.861 378.268 738.163 378.133C738.47 377.997 738.702 377.812 738.858 377.578C739.02 377.339 739.1 377.076 739.1 376.789C739.1 376.482 739.059 376.221 738.975 376.008C738.892 375.794 738.77 375.62 738.608 375.484C738.447 375.344 738.246 375.242 738.007 375.18C737.772 375.117 737.499 375.086 737.186 375.086H735.78V373.867ZM748.568 378.094V374.328C748.568 374.057 748.524 373.826 748.435 373.633C748.347 373.435 748.209 373.281 748.021 373.172C747.839 373.062 747.602 373.008 747.31 373.008C747.06 373.008 746.844 373.052 746.662 373.141C746.48 373.224 746.339 373.346 746.24 373.508C746.141 373.664 746.092 373.849 746.092 374.062H743.842C743.842 373.703 743.925 373.362 744.092 373.039C744.258 372.716 744.5 372.432 744.818 372.188C745.136 371.938 745.513 371.742 745.951 371.602C746.394 371.461 746.888 371.391 747.435 371.391C748.092 371.391 748.675 371.5 749.185 371.719C749.696 371.938 750.097 372.266 750.388 372.703C750.685 373.141 750.834 373.688 750.834 374.344V377.961C750.834 378.424 750.862 378.805 750.92 379.102C750.977 379.393 751.06 379.648 751.17 379.867V380H748.896C748.787 379.771 748.704 379.484 748.646 379.141C748.594 378.792 748.568 378.443 748.568 378.094ZM748.865 374.852L748.881 376.125H747.623C747.326 376.125 747.068 376.159 746.849 376.227C746.631 376.294 746.451 376.391 746.31 376.516C746.17 376.635 746.066 376.776 745.998 376.938C745.935 377.099 745.904 377.276 745.904 377.469C745.904 377.661 745.948 377.836 746.037 377.992C746.125 378.143 746.253 378.263 746.42 378.352C746.586 378.435 746.782 378.477 747.006 378.477C747.344 378.477 747.638 378.409 747.888 378.273C748.138 378.138 748.331 377.971 748.467 377.773C748.607 377.576 748.68 377.388 748.685 377.211L749.279 378.164C749.196 378.378 749.081 378.599 748.935 378.828C748.795 379.057 748.615 379.273 748.396 379.477C748.177 379.674 747.914 379.839 747.607 379.969C747.3 380.094 746.935 380.156 746.513 380.156C745.977 380.156 745.49 380.049 745.052 379.836C744.62 379.617 744.276 379.318 744.021 378.938C743.771 378.552 743.646 378.115 743.646 377.625C743.646 377.182 743.73 376.789 743.896 376.445C744.063 376.102 744.308 375.812 744.631 375.578C744.959 375.339 745.368 375.159 745.857 375.039C746.347 374.914 746.914 374.852 747.56 374.852H748.865ZM755.927 371.547V380H753.677V371.547H755.927ZM761.419 371.547L757.778 376.836H755.528L755.255 374.758H756.747L758.567 371.547H761.419ZM758.669 380L756.591 376.43L758.552 375.344L761.684 380H758.669ZM768.051 378.094V374.328C768.051 374.057 768.006 373.826 767.918 373.633C767.829 373.435 767.691 373.281 767.504 373.172C767.321 373.062 767.084 373.008 766.793 373.008C766.543 373.008 766.327 373.052 766.144 373.141C765.962 373.224 765.821 373.346 765.722 373.508C765.624 373.664 765.574 373.849 765.574 374.062H763.324C763.324 373.703 763.407 373.362 763.574 373.039C763.741 372.716 763.983 372.432 764.301 372.188C764.618 371.938 764.996 371.742 765.433 371.602C765.876 371.461 766.371 371.391 766.918 371.391C767.574 371.391 768.157 371.5 768.668 371.719C769.178 371.938 769.579 372.266 769.871 372.703C770.168 373.141 770.316 373.688 770.316 374.344V377.961C770.316 378.424 770.345 378.805 770.402 379.102C770.459 379.393 770.543 379.648 770.652 379.867V380H768.379C768.269 379.771 768.186 379.484 768.129 379.141C768.077 378.792 768.051 378.443 768.051 378.094ZM768.347 374.852L768.363 376.125H767.105C766.808 376.125 766.551 376.159 766.332 376.227C766.113 376.294 765.933 376.391 765.793 376.516C765.652 376.635 765.548 376.776 765.48 376.938C765.418 377.099 765.387 377.276 765.387 377.469C765.387 377.661 765.431 377.836 765.519 377.992C765.608 378.143 765.736 378.263 765.902 378.352C766.069 378.435 766.264 378.477 766.488 378.477C766.827 378.477 767.121 378.409 767.371 378.273C767.621 378.138 767.814 377.971 767.949 377.773C768.09 377.576 768.163 377.388 768.168 377.211L768.762 378.164C768.678 378.378 768.564 378.599 768.418 378.828C768.277 379.057 768.097 379.273 767.879 379.477C767.66 379.674 767.397 379.839 767.09 379.969C766.782 380.094 766.418 380.156 765.996 380.156C765.459 380.156 764.972 380.049 764.535 379.836C764.103 379.617 763.759 379.318 763.504 378.938C763.254 378.552 763.129 378.115 763.129 377.625C763.129 377.182 763.212 376.789 763.379 376.445C763.545 376.102 763.79 375.812 764.113 375.578C764.441 375.339 764.85 375.159 765.34 375.039C765.829 374.914 766.397 374.852 767.043 374.852H768.347ZM776.776 375.969H775.104V374.961H776.3C776.581 374.961 776.805 374.922 776.972 374.844C777.143 374.766 777.266 374.656 777.339 374.516C777.417 374.37 777.456 374.206 777.456 374.023C777.456 373.862 777.422 373.708 777.354 373.562C777.292 373.411 777.177 373.289 777.011 373.195C776.849 373.096 776.62 373.047 776.323 373.047C776.078 373.047 775.86 373.083 775.667 373.156C775.479 373.229 775.331 373.336 775.222 373.477C775.117 373.612 775.065 373.776 775.065 373.969H772.807C772.807 373.432 772.961 372.974 773.268 372.594C773.576 372.208 773.987 371.914 774.503 371.711C775.018 371.503 775.584 371.398 776.198 371.398C776.735 371.398 777.219 371.453 777.651 371.562C778.084 371.667 778.453 371.823 778.761 372.031C779.068 372.24 779.302 372.497 779.464 372.805C779.63 373.107 779.714 373.458 779.714 373.859C779.714 374.146 779.646 374.417 779.511 374.672C779.375 374.927 779.18 375.154 778.925 375.352C778.669 375.544 778.36 375.695 777.995 375.805C777.636 375.914 777.229 375.969 776.776 375.969ZM775.104 375.406H776.776C777.281 375.406 777.724 375.456 778.104 375.555C778.49 375.648 778.813 375.789 779.073 375.977C779.334 376.164 779.529 376.396 779.659 376.672C779.794 376.943 779.862 377.255 779.862 377.609C779.862 378.01 779.774 378.37 779.597 378.688C779.419 379 779.167 379.266 778.839 379.484C778.511 379.703 778.123 379.87 777.675 379.984C777.227 380.099 776.735 380.156 776.198 380.156C775.625 380.156 775.068 380.062 774.526 379.875C773.985 379.688 773.539 379.398 773.19 379.008C772.847 378.617 772.675 378.115 772.675 377.5H774.932C774.932 377.677 774.985 377.844 775.089 378C775.193 378.156 775.349 378.281 775.557 378.375C775.766 378.464 776.024 378.508 776.331 378.508C776.638 378.508 776.886 378.458 777.073 378.359C777.261 378.26 777.396 378.13 777.479 377.969C777.568 377.802 777.612 377.63 777.612 377.453C777.612 377.203 777.563 377 777.464 376.844C777.37 376.688 777.224 376.573 777.026 376.5C776.834 376.427 776.591 376.391 776.3 376.391H775.104V375.406ZM786.767 378.094V374.328C786.767 374.057 786.723 373.826 786.635 373.633C786.546 373.435 786.408 373.281 786.221 373.172C786.038 373.062 785.801 373.008 785.51 373.008C785.26 373.008 785.044 373.052 784.861 373.141C784.679 373.224 784.538 373.346 784.439 373.508C784.34 373.664 784.291 373.849 784.291 374.062H782.041C782.041 373.703 782.124 373.362 782.291 373.039C782.458 372.716 782.7 372.432 783.017 372.188C783.335 371.938 783.713 371.742 784.15 371.602C784.593 371.461 785.088 371.391 785.635 371.391C786.291 371.391 786.874 371.5 787.385 371.719C787.895 371.938 788.296 372.266 788.588 372.703C788.885 373.141 789.033 373.688 789.033 374.344V377.961C789.033 378.424 789.062 378.805 789.119 379.102C789.176 379.393 789.26 379.648 789.369 379.867V380H787.096C786.986 379.771 786.903 379.484 786.846 379.141C786.794 378.792 786.767 378.443 786.767 378.094ZM787.064 374.852L787.08 376.125H785.822C785.525 376.125 785.267 376.159 785.049 376.227C784.83 376.294 784.65 376.391 784.51 376.516C784.369 376.635 784.265 376.776 784.197 376.938C784.135 377.099 784.103 377.276 784.103 377.469C784.103 377.661 784.148 377.836 784.236 377.992C784.325 378.143 784.452 378.263 784.619 378.352C784.786 378.435 784.981 378.477 785.205 378.477C785.544 378.477 785.838 378.409 786.088 378.273C786.338 378.138 786.531 377.971 786.666 377.773C786.807 377.576 786.879 377.388 786.885 377.211L787.478 378.164C787.395 378.378 787.281 378.599 787.135 378.828C786.994 379.057 786.814 379.273 786.596 379.477C786.377 379.674 786.114 379.839 785.807 379.969C785.499 380.094 785.135 380.156 784.713 380.156C784.176 380.156 783.689 380.049 783.252 379.836C782.82 379.617 782.476 379.318 782.221 378.938C781.971 378.552 781.846 378.115 781.846 377.625C781.846 377.182 781.929 376.789 782.096 376.445C782.262 376.102 782.507 375.812 782.83 375.578C783.158 375.339 783.567 375.159 784.057 375.039C784.546 374.914 785.114 374.852 785.76 374.852H787.064ZM795.907 371.547V380H793.649V371.547H795.907ZM798.626 371.547V373.289H790.97V371.547H798.626ZM802.289 374.055H804.742C805.513 374.055 806.169 374.182 806.711 374.438C807.258 374.688 807.674 375.036 807.961 375.484C808.253 375.932 808.398 376.451 808.398 377.039C808.398 377.466 808.315 377.862 808.148 378.227C807.987 378.586 807.75 378.898 807.438 379.164C807.125 379.43 806.742 379.635 806.289 379.781C805.836 379.927 805.32 380 804.742 380H800.883V371.547H803.141V378.25H804.742C805.081 378.25 805.352 378.195 805.555 378.086C805.763 377.971 805.914 377.823 806.008 377.641C806.107 377.458 806.156 377.26 806.156 377.047C806.156 376.823 806.107 376.62 806.008 376.438C805.914 376.25 805.763 376.099 805.555 375.984C805.352 375.87 805.081 375.812 804.742 375.812H802.289V374.055ZM818.084 379.047L820.326 371.547H822.74L819.342 381.273C819.269 381.487 819.17 381.716 819.045 381.961C818.925 382.206 818.761 382.438 818.553 382.656C818.35 382.88 818.092 383.062 817.779 383.203C817.472 383.344 817.094 383.414 816.647 383.414C816.433 383.414 816.259 383.401 816.123 383.375C815.988 383.349 815.826 383.312 815.639 383.266V381.617C815.696 381.617 815.756 381.617 815.818 381.617C815.881 381.622 815.941 381.625 815.998 381.625C816.295 381.625 816.537 381.591 816.725 381.523C816.912 381.456 817.063 381.352 817.178 381.211C817.292 381.076 817.384 380.898 817.451 380.68L818.084 379.047ZM817.147 371.547L818.982 377.672L819.303 380.055L817.772 380.219L814.732 371.547H817.147ZM827.982 378.398C828.258 378.398 828.502 378.346 828.716 378.242C828.929 378.133 829.096 377.982 829.216 377.789C829.341 377.591 829.406 377.359 829.411 377.094H831.528C831.523 377.688 831.364 378.216 831.052 378.68C830.739 379.138 830.32 379.5 829.794 379.766C829.268 380.026 828.679 380.156 828.028 380.156C827.372 380.156 826.799 380.047 826.31 379.828C825.825 379.609 825.422 379.307 825.099 378.922C824.776 378.531 824.534 378.078 824.372 377.562C824.211 377.042 824.13 376.484 824.13 375.891V375.664C824.13 375.065 824.211 374.508 824.372 373.992C824.534 373.471 824.776 373.018 825.099 372.633C825.422 372.242 825.825 371.938 826.31 371.719C826.794 371.5 827.362 371.391 828.013 371.391C828.706 371.391 829.312 371.523 829.833 371.789C830.359 372.055 830.771 372.435 831.067 372.93C831.37 373.419 831.523 374 831.528 374.672H829.411C829.406 374.391 829.346 374.135 829.232 373.906C829.122 373.677 828.961 373.495 828.747 373.359C828.539 373.219 828.281 373.148 827.974 373.148C827.646 373.148 827.377 373.219 827.169 373.359C826.961 373.495 826.799 373.682 826.685 373.922C826.57 374.156 826.489 374.424 826.442 374.727C826.401 375.023 826.38 375.336 826.38 375.664V375.891C826.38 376.219 826.401 376.534 826.442 376.836C826.484 377.138 826.562 377.406 826.677 377.641C826.797 377.875 826.961 378.06 827.169 378.195C827.377 378.331 827.648 378.398 827.982 378.398ZM839.481 371.547V373.312H835.324V371.547H839.481ZM841.129 371.547V380H838.879V371.547H841.129ZM834.762 371.547H836.973L836.746 375.812C836.715 376.422 836.65 376.958 836.551 377.422C836.452 377.885 836.319 378.281 836.152 378.609C835.991 378.938 835.796 379.206 835.567 379.414C835.343 379.617 835.08 379.766 834.777 379.859C834.481 379.953 834.152 380 833.793 380H833.106L833.082 378.227L833.371 378.195C833.538 378.18 833.684 378.133 833.809 378.055C833.939 377.971 834.048 377.854 834.137 377.703C834.231 377.547 834.309 377.352 834.371 377.117C834.434 376.878 834.483 376.596 834.52 376.273C834.561 375.951 834.59 375.578 834.606 375.156L834.762 371.547ZM846.339 379.047L848.581 371.547H850.995L847.597 381.273C847.524 381.487 847.425 381.716 847.3 381.961C847.18 382.206 847.016 382.438 846.808 382.656C846.605 382.88 846.347 383.062 846.034 383.203C845.727 383.344 845.349 383.414 844.902 383.414C844.688 383.414 844.514 383.401 844.378 383.375C844.243 383.349 844.081 383.312 843.894 383.266V381.617C843.951 381.617 844.011 381.617 844.073 381.617C844.136 381.622 844.196 381.625 844.253 381.625C844.55 381.625 844.792 381.591 844.98 381.523C845.167 381.456 845.318 381.352 845.433 381.211C845.547 381.076 845.639 380.898 845.706 380.68L846.339 379.047ZM845.402 371.547L847.237 377.672L847.558 380.055L846.027 380.219L842.987 371.547H845.402ZM858.604 371.547V373.312H855.088V380H852.838V371.547H858.604ZM863.04 379.047L865.283 371.547H867.697L864.298 381.273C864.225 381.487 864.126 381.716 864.001 381.961C863.881 382.206 863.717 382.438 863.509 382.656C863.306 382.88 863.048 383.062 862.736 383.203C862.428 383.344 862.051 383.414 861.603 383.414C861.389 383.414 861.215 383.401 861.079 383.375C860.944 383.349 860.783 383.312 860.595 383.266V381.617C860.652 381.617 860.712 381.617 860.775 381.617C860.837 381.622 860.897 381.625 860.954 381.625C861.251 381.625 861.493 381.591 861.681 381.523C861.868 381.456 862.019 381.352 862.134 381.211C862.249 381.076 862.34 380.898 862.408 380.68L863.04 379.047ZM862.103 371.547L863.939 377.672L864.259 380.055L862.728 380.219L859.689 371.547H862.103Z" fill="white"/>
<defs>
<filter id="filter0_d_1_20" x="494.502" y="212.43" width="606.895" height="108.262" filterUnits="userSpaceOnUse" color-interpolation-filters="sRGB">
<feFlood flood-opacity="0" result="BackgroundImageFix"/>
<feColorMatrix in="SourceAlpha" type="matrix" values="0 0 0 0 0 0 0 0 0 0 0 0 0 0 0 0 0 0 127 0" result="hardAlpha"/>
<feOffset dy="4"/>
<feGaussianBlur stdDeviation="2"/>
<feComposite in2="hardAlpha" operator="out"/>
<feColorMatrix type="matrix" values="0 0 0 0 0 0 0 0 0 0 0 0 0 0 0 0 0 0 0.25 0"/>
<feBlend mode="normal" in2="BackgroundImageFix" result="effect1_dropShadow_1_20"/>
<feBlend mode="normal" in="SourceGraphic" in2="effect1_dropShadow_1_20" result="shape"/>
</filter>
<filter id="filter1_d_1_20" x="696" y="350" width="208" height="58" filterUnits="userSpaceOnUse" color-interpolation-filters="sRGB">
<feFlood flood-opacity="0" result="BackgroundImageFix"/>
<feColorMatrix in="SourceAlpha" type="matrix" values="0 0 0 0 0 0 0 0 0 0 0 0 0 0 0 0 0 0 127 0" result="hardAlpha"/>
<feOffset dy="4"/>
<feGaussianBlur stdDeviation="2"/>
<feColorMatrix type="matrix" values="0 0 0 0 0 0 0 0 0 0 0 0 0 0 0 0 0 0 0.15 0"/>
<feBlend mode="normal" in2="BackgroundImageFix" result="effect1_dropShadow_1_20"/>
<feBlend mode="normal" in="SourceGraphic" in2="effect1_dropShadow_1_20" result="shape"/>
</filter>
</defs>
</svg>
